<?xml version="1.0" encoding="UTF-8"?>
<svg version="1.1" xmlns="http://www.w3.org/2000/svg" width="744" height="76">
<path d="M0 0 C245.52 0 491.04 0 744 0 C744 15.51 744 31.02 744 47 C741.03 48.98 738.06 50.96 735 53 C732.61453682 55.30725127 730.29327152 57.61016968 728 60 C725.57554571 62.27751767 724.45613123 62.90877375 721.1875 63.5625 C717.14465387 62.84905656 715.5071304 61.10949415 712.7109375 58.21484375 C711.07062467 56.7714063 711.07062467 56.7714063 708.96484375 57.18359375 C706.74040355 58.01165154 706.74040355 58.01165154 704.1875 60.125 C701 62 701 62 697.3125 62.125 C694 61 694 61 692.0625 57.9375 C691.711875 56.968125 691.36125 55.99875 691 55 C686.84132328 55.6017133 683.79330548 57.047314 680.125 59.0625 C672.22722737 63.0890057 672.22722737 63.0890057 667 62 C664.8125 60 664.8125 60 663 58 C661.68 58 660.36 58 659 58 C657.21030974 60.42672567 657.21030974 60.42672567 656 63 C651.93183124 62.69488734 649.40526496 61.73238892 646.125 59.4375 C642.81812947 57.29148535 640.14850319 56.19365109 636.07421875 56.42578125 C632.6031666 57.38669399 629.98963368 59.55539385 627.1015625 61.64453125 C625 63 625 63 621.75 63.6875 C618.0698893 62.76747233 616.57389438 60.7093625 614 58 C608.88471334 58 605.61969444 60.13810995 601.30859375 62.59960938 C598.19660142 64.27036448 596.24307601 65.0134565 592.68359375 64.81640625 C590 64 590 64 587.9375 62.375 C586.07083913 60.73836092 586.07083913 60.73836092 583.625 61.19140625 C580.58639529 62.12740502 579.28043869 63.31734733 577.0625 65.5625 C574.6100243 67.77292503 573.33468294 68.90541569 570.125 69.8125 C566.02082021 68.74541325 562.95559542 66.60135377 559.38671875 64.35546875 C556.25855861 62.57891954 554.51703781 62.14027965 551 63 C549.14740686 64.20875472 547.4112878 65.52022084 545.66015625 66.87109375 C544 68 544 68 541.375 68.5625 C539 68 539 68 536.5625 65.9375 C534.12808586 63.68117471 534.12808586 63.68117471 530.9375 64.0625 C527.98348452 64.82338105 527.98348452 64.82338105 525.875 66.625 C524 68 524 68 521.9375 67.8125 C520 67 520 67 517 65 C514.28852649 65.27114735 512.84737573 66.10174951 510.5625 67.625 C508 69 508 69 505.4375 68.75 C503.9262807 68.28500945 502.42344387 67.79034323 500.9375 67.25 C498.84723422 66.75132236 498.84723422 66.75132236 497 68.5 C495 70 495 70 492.9375 70 C491 69 491 69 489.625 66.5 C488.22020702 63.76026451 488.22020702 63.76026451 485.33984375 63.15625 C480.57225364 62.93320485 477.3217337 64.80916638 473.12304688 66.90625 C469.3046106 68.71300189 467.03117182 69.42842204 463 68 C461.76878631 67.37660066 460.55883553 66.70925829 459.375 66 C455.9311378 64.16370915 453.20110845 63.73521074 449.3125 63.5625 C444.32788507 63.26081767 444.32788507 63.26081767 441.25 60.8125 C440.5075 59.884375 439.765 58.95625 439 58 C437.83708973 56.89031217 436.6479884 55.8075846 435.4375 54.75 C434.87933594 54.24984375 434.32117188 53.7496875 433.74609375 53.234375 C428.78983575 49.73062214 422.09285068 50.68158409 416.37988281 51.55078125 C414.5598877 51.92783203 414.5598877 51.92783203 412.703125 52.3125 C411.32867922 52.5881383 409.95399505 52.86258996 408.57910156 53.13598633 C407.51858582 53.34936142 407.51858582 53.34936142 406.43664551 53.56704712 C387.66746891 57.28331894 371.59828192 59.71915718 353.32519531 52.49145508 C347.52739788 50.22658248 342.23319922 48.84555875 336 50 C333.22813511 51.29064744 331.06584402 53.02168791 328.75 55 C327.4639516 56.01460954 326.17348351 57.02363925 324.87890625 58.02734375 C323.91428467 58.78120361 323.91428467 58.78120361 322.93017578 59.55029297 C315.81443414 64.89474956 306.2334262 71.69335252 297 71 C294.23093564 69.65995078 293.06825576 68.39482246 291 66 C291 65.34 291 64.68 291 64 C283.49951909 63.29157205 278.56745261 65.67378649 271.9375 69 C260.01435273 74.95754826 260.01435273 74.95754826 254 74 C252.7934375 72.7315625 252.7934375 72.7315625 251.5625 71.4375 C250.716875 70.633125 249.87125 69.82875 249 69 C243.15750935 69.24835242 238.57362309 70.78944782 233.25 73.0625 C226.68307437 75.68403641 220.10214599 77.74160905 213 76 C211.64313919 74.69061682 210.30726418 73.35890247 209 72 C205.3130659 72.13912959 202.22862901 72.92940197 198.7109375 74.015625 C190.1238522 76.29346236 182.07703365 76.61853572 174.29516602 72.18310547 C172.57762125 71.1109539 170.89693197 69.98042908 169.21875 68.84765625 C165.09009825 66.47768989 161.70582248 65.3878536 156.95068359 66.46362305 C154.74068006 67.16611904 152.59506211 67.96289999 150.4375 68.8125 C148.97796843 69.36095351 147.51833484 69.90913563 146.05859375 70.45703125 C145.01868286 70.85329712 145.01868286 70.85329712 143.95776367 71.25756836 C139.70059866 72.87198896 135.89955693 74.288484 131.3125 74.3125 C130.56613281 74.32925781 129.81976563 74.34601563 129.05078125 74.36328125 C126.44067074 73.90091882 125.65251233 73.033495 124 71 C123.34 70.01 122.68 69.02 122 68 C119.40408292 67.82893957 117.02156697 67.81812734 114.4375 67.9375 C105.6150335 68.16311863 105.6150335 68.16311863 101.5 67 C97.32577498 65.83603341 93.29391783 65.96080195 89 66.0625 C82.7242499 66.19536236 77.77406816 65.42259816 72 63 C69.18898685 61.88257862 68.26188516 61.9007716 65.37109375 62.99609375 C64.40300781 63.47175781 63.43492188 63.94742188 62.4375 64.4375 C56.62530863 66.99144945 51.31974172 68.24731744 45 67 C43.65199977 66.01986064 42.31662457 65.02189898 41 64 C38.29405254 64.25319 38.29405254 64.25319 36.32421875 64.6640625 C33.18607441 65.11764303 30.10727989 65.15409874 26.9375 65.1875 C25.18759766 65.20876953 25.18759766 65.20876953 23.40234375 65.23046875 C19.93672739 64.99571403 17.25380056 64.16174103 14 63 C13.05125 63.04125 12.1025 63.0825 11.125 63.125 C8 63 8 63 0 59 C0 39.53 0 20.06 0 0 Z " fill="#003333" transform="translate(0,0)"/>
</svg>
