<?xml version="1.0" encoding="UTF-8"?>
<!DOCTYPE svg PUBLIC "-//W3C//DTD SVG 1.1//EN" "http://www.w3.org/Graphics/SVG/1.1/DTD/svg11.dtd">
<!-- Creator: CorelDRAW -->
<svg xmlns="http://www.w3.org/2000/svg" xml:space="preserve" width="210mm" height="38.2507mm" version="1.1" style="shape-rendering:geometricPrecision; text-rendering:geometricPrecision; image-rendering:optimizeQuality; fill-rule:evenodd; clip-rule:evenodd"
viewBox="0 0 20968.85 3819.4"
 xmlns:xlink="http://www.w3.org/1999/xlink"
 xmlns:xodm="http://www.corel.com/coreldraw/odm/2003">
 <defs>
  <style type="text/css">
   <![CDATA[
    .fil0 {fill:#003333}
   ]]>
  </style>
 </defs>
 <g id="Слой_x0020_1">
  <metadata id="CorelCorpID_0Corel-Layer"/>
  <path class="fil0" d="M-0 3286.59c0.84,1.11 397.49,237.18 390.04,94.3 -0.9,-17.37 189.47,203.69 717.67,38.39 120.01,-37.54 129.61,311.78 752.91,-23.57 227.42,-122.36 122.01,174.14 743.53,78.45 201.77,-31.05 215.07,142.92 751.57,48.16 283.93,-50.16 -59.7,471.53 850.07,50.18 787.67,-364.8 522.76,529.36 1613.68,53.88 380.06,132.53 -55.04,390.87 1076.52,-68.68 273.65,-111.13 61.96,421.24 731.95,31.31 1123.3,-653.79 19.85,804.06 1864.07,-570.43 46.6,-34.73 409.5,29.89 586.76,124.55 771.43,412 1932.9,-441.93 2290.8,102.13 249.18,378.81 313.61,-7.26 725.7,320.94 145.71,116.05 617.34,-474.88 777.42,49.17 103.17,35.98 175.49,-220.9 356.17,-48.17 115.14,110.09 227.13,-276.23 455.12,-35.36 119.67,126.44 228.66,-308.28 486.33,-11.79 185,212.88 270.78,-423.76 804.18,48.84 178.97,158.58 364.48,-357.24 581.72,-207.79 206.22,141.9 121.04,149.03 466.72,-12.78 471.21,-220.56 42.68,-223.76 455.14,65.65 148.32,104.08 363.62,-386.28 706.98,-132.68 437.63,323.24 245.4,-44.75 442.2,-44.11 181.15,0.6 20.61,402.84 793,-82.5 151.09,-94.95 46.09,509.56 529.13,81.49 135.87,-120.4 249.09,314.95 453.79,160.32 162.2,-122.54 385.61,-421.63 565.67,-427.38l0 -2969.11 -20968.85 0 0 3286.59z"/>
 </g>
</svg>
